<svg width="271" height="78" viewBox="0 0 271 78" fill="none" xmlns="http://www.w3.org/2000/svg">
<path d="M102.145 0H232.1C253.516 0 270.877 17.3609 270.877 38.7767V38.7767C270.877 60.1925 253.516 77.5534 232.1 77.5534H81.3828L102.145 0Z" fill="#2B9348"/>
<mask id="mask0" mask-type="alpha" maskUnits="userSpaceOnUse" x="21" y="0" width="58" height="21">
<rect x="21.9648" width="56.2383" height="20.3721" fill="#C4C4C4"/>
</mask>
<g mask="url(#mask0)">
<path d="M33.0551 8.55072C32.6987 8.18612 32.243 7.93441 31.7447 7.82694C31.2463 7.71947 30.7274 7.76099 30.2524 7.94633C29.7775 8.13167 29.3676 8.45263 29.0738 8.86925C28.7799 9.28587 28.6152 9.77972 28.6 10.2893C28.3162 10.453 28.0752 10.6815 27.8966 10.9561C27.718 11.2307 27.6068 11.5437 27.5722 11.8694C27.5376 12.1952 27.5805 12.5245 27.6974 12.8305C27.8143 13.1366 28.0019 13.4106 28.2449 13.6303C28.4879 13.85 28.7794 14.0091 29.0956 14.0947C29.4118 14.1802 29.7438 14.1898 30.0644 14.1226C30.3851 14.0555 30.6853 13.9134 30.9405 13.7081C31.1958 13.5028 31.3989 13.24 31.5333 12.9413C31.951 12.8865 32.3491 12.7312 32.6934 12.4885C32.9946 12.6173 33.322 12.673 33.6489 12.6512C33.9758 12.6293 34.2928 12.5305 34.5742 12.3627C34.8556 12.195 35.0933 11.9631 35.268 11.6859C35.4427 11.4088 35.5494 11.0943 35.5793 10.7681C35.6093 10.4418 35.5617 10.1132 35.4404 9.80883C35.3191 9.50451 35.1276 9.23318 34.8815 9.01698C34.6354 8.80078 34.3416 8.64584 34.0242 8.56481C33.7068 8.48378 33.3747 8.47895 33.0551 8.55072V8.55072Z" fill="#02A437"/>
<path d="M32.1415 13.3052C32.0369 13.3053 31.9348 13.2737 31.8484 13.2147C31.762 13.1557 31.6955 13.072 31.6575 12.9745L30.7133 10.555C30.6885 10.4914 30.6764 10.4236 30.6778 10.3554C30.6793 10.2872 30.6941 10.2199 30.7215 10.1575C30.7489 10.095 30.7883 10.0385 30.8376 9.99131C30.8868 9.94408 30.9448 9.90701 31.0084 9.88221C31.0719 9.85742 31.1397 9.84538 31.2079 9.84679C31.2761 9.8482 31.3434 9.86303 31.4059 9.89044C31.4683 9.91784 31.5248 9.95728 31.572 10.0065C31.6193 10.0557 31.6563 10.1138 31.6811 10.1773L32.6255 12.5968C32.6563 12.6756 32.6674 12.7606 32.6578 12.8446C32.6482 12.9286 32.6183 13.0089 32.5706 13.0787C32.523 13.1485 32.459 13.2056 32.3842 13.2451C32.3095 13.2846 32.2263 13.3052 32.1417 13.3052H32.1415Z" fill="#027E2A"/>
<path d="M33.1079 12.9258C33.092 12.9258 33.076 12.925 33.0598 12.9236C32.9919 12.9173 32.9258 12.8977 32.8654 12.866C32.8051 12.8342 32.7515 12.7909 32.7079 12.7384C32.6643 12.6859 32.6315 12.6254 32.6112 12.5603C32.591 12.4951 32.5838 12.4266 32.5901 12.3587C32.671 11.4964 33.0277 10.6831 33.6072 10.0395C33.6528 9.98828 33.7081 9.94656 33.7698 9.91678C33.8316 9.887 33.8987 9.86974 33.9671 9.866C34.0356 9.86227 34.1041 9.87213 34.1688 9.89502C34.2334 9.91791 34.2929 9.95338 34.3438 9.99937C34.3946 10.0454 34.4359 10.101 34.4652 10.163C34.4944 10.225 34.5111 10.2922 34.5143 10.3607C34.5175 10.4292 34.507 10.4977 34.4836 10.5621C34.4602 10.6266 34.4242 10.6858 34.3778 10.7362C33.9487 11.2129 33.6846 11.8151 33.6246 12.4537C33.6128 12.5826 33.5533 12.7025 33.4577 12.7898C33.3621 12.8771 33.2374 12.9256 33.1079 12.9258V12.9258Z" fill="#027E2A"/>
<path d="M31.1742 13.6819C31.0455 13.6821 30.9214 13.6343 30.826 13.5478C30.3494 13.1186 29.7472 12.8545 29.1087 12.7946C29.0407 12.7884 28.9747 12.7688 28.9143 12.737C28.854 12.7053 28.8004 12.6619 28.7568 12.6095C28.7132 12.557 28.6803 12.4965 28.6601 12.4313C28.6399 12.3662 28.6327 12.2977 28.6389 12.2298C28.6451 12.1618 28.6647 12.0958 28.6965 12.0354C28.7282 11.975 28.7716 11.9215 28.824 11.8779C28.8765 11.8343 28.937 11.8014 29.0021 11.7812C29.0673 11.7609 29.1358 11.7537 29.2037 11.76C30.0658 11.841 30.8789 12.1976 31.5225 12.7769C31.6005 12.8472 31.6553 12.9396 31.6797 13.0417C31.7041 13.1439 31.697 13.251 31.6593 13.3491C31.6216 13.4471 31.555 13.5314 31.4684 13.5908C31.3818 13.6502 31.2793 13.682 31.1742 13.6819V13.6819Z" fill="#027E2A"/>
<path d="M38.2317 22.6747L34.3604 24.1857L30.6293 16.7064C30.4528 16.3525 30.352 15.9657 30.3333 15.5707C30.3146 15.1757 30.3784 14.7811 30.5207 14.4121C30.6629 14.0431 30.8805 13.7078 31.1596 13.4276C31.4387 13.1474 31.7731 12.9284 32.1415 12.7846C32.5099 12.6408 32.9043 12.5754 33.2994 12.5925C33.6945 12.6096 34.0817 12.7089 34.4364 12.884C34.791 13.0591 35.1052 13.3062 35.359 13.6095C35.6128 13.9128 35.8006 14.2657 35.9104 14.6456L38.2317 22.6747Z" fill="#FD9226"/>
<path d="M43.6621 0.287598H45.7399V14.8321H43.6621V0.287598Z" fill="#026A23"/>
<path d="M44.6427 10.8021C44.5933 10.4898 44.5111 10.1835 44.3973 9.88852L42.1033 3.92334L40.5449 4.44279L42.7701 10.2281C43.0161 10.8677 43.1423 11.5472 43.1422 12.2325V14.0759L44.6427 10.8021Z" fill="#027226"/>
<path d="M46.9286 19.8801C47.185 20.2219 47.3236 20.6377 47.3236 21.0651C47.3236 21.4924 47.185 21.9082 46.9286 22.25L46.9215 22.2598C46.7158 22.534 46.4492 22.7565 46.1426 22.9098C45.8361 23.063 45.4981 23.1428 45.1554 23.1428H44.2463C43.9036 23.1428 43.5656 23.063 43.259 22.9098C42.9525 22.7565 42.6858 22.534 42.4802 22.2598L42.4731 22.25C42.2167 21.9082 42.0781 21.4924 42.0781 21.0651C42.0781 20.6377 42.2167 20.2219 42.4731 19.8801L43.1425 18.9873V14.0759L44.6431 10.8021L44.7008 10.6761L47.2981 3.92334L48.8564 4.44279L46.6312 10.2281C46.3852 10.8677 46.2591 11.5472 46.2592 12.2325V18.9873L46.9286 19.8801Z" fill="#027E2A"/>
<path d="M46.9286 22.2499L46.9215 22.2597C46.7031 22.5512 46.4157 22.7839 46.0852 22.9369L42.9795 22.7428C42.7884 22.6094 42.6198 22.4463 42.4802 22.2597L42.4731 22.2499C42.2167 21.9081 42.0781 21.4923 42.0781 21.0649C42.0781 20.6376 42.2167 20.2218 42.4731 19.88L42.5192 19.8183L43.1425 19.5066L46.2592 12.2324V18.9872L46.9286 19.88C47.185 20.2218 47.3236 20.6376 47.3236 21.0649C47.3236 21.4923 47.185 21.9081 46.9286 22.2499V22.2499Z" fill="#027E2A"/>
<path d="M31.9262 18.2732C31.8164 18.2734 31.71 18.2347 31.6255 18.1638C31.5409 18.0929 31.4835 17.9944 31.4632 17.8852C31.4429 17.776 31.4609 17.6631 31.5142 17.5659C31.5675 17.4688 31.6527 17.3936 31.755 17.3533L32.6316 17.0072C32.7478 16.9613 32.8773 16.964 32.9916 17.0147C33.1059 17.0654 33.1956 17.16 33.2409 17.2777C33.2863 17.3953 33.2836 17.5264 33.2335 17.642C33.1834 17.7577 33.0899 17.8484 32.9737 17.8943L32.0974 18.2405C32.0428 18.2621 31.9848 18.2732 31.9262 18.2732V18.2732Z" fill="#E78244"/>
<path d="M34.605 17.2351C34.4914 17.2353 34.3812 17.1965 34.2936 17.1257C34.2061 17.0548 34.1467 16.9563 34.1256 16.8471C34.1046 16.738 34.1232 16.625 34.1784 16.5279C34.2336 16.4308 34.3218 16.3556 34.4277 16.3153L35.3357 15.9691C35.4561 15.9232 35.5903 15.9259 35.7086 15.9766C35.827 16.0274 35.9199 16.122 35.9668 16.2396C36.0138 16.3573 36.011 16.4883 35.9591 16.604C35.9072 16.7196 35.8104 16.8104 35.69 16.8563L34.7824 17.2025C34.7258 17.2241 34.6657 17.2351 34.605 17.2351V17.2351Z" fill="#E78244"/>
<path d="M32.7086 20.0261C32.5976 20.0263 32.4901 19.9876 32.4046 19.9167C32.3192 19.8458 32.2612 19.7473 32.2406 19.6381C32.2201 19.529 32.2384 19.416 32.2922 19.3189C32.3461 19.2218 32.4322 19.1466 32.5356 19.1063L33.7916 18.6302C33.8498 18.6075 33.9119 18.5965 33.9743 18.5978C34.0367 18.599 34.0983 18.6126 34.1555 18.6378C34.2127 18.6629 34.2644 18.699 34.3076 18.7441C34.3509 18.7893 34.3848 18.8425 34.4075 18.9007C34.4302 18.959 34.4413 19.0211 34.44 19.0836C34.4387 19.1461 34.4251 19.2078 34.4 19.2651C34.3749 19.3223 34.3388 19.3741 34.2938 19.4174C34.2487 19.4607 34.1955 19.4946 34.1374 19.5174L32.8813 19.9935C32.8263 20.015 32.7677 20.0261 32.7086 20.0261V20.0261Z" fill="#E78244"/>
<path d="M35.7747 18.8572C35.6611 18.8573 35.551 18.8171 35.4635 18.7435C35.376 18.67 35.3165 18.5676 35.2955 18.4543C35.2745 18.341 35.2932 18.2237 35.3483 18.1229C35.4035 18.022 35.4916 17.9439 35.5975 17.9021L36.0513 17.7223C36.1717 17.6746 36.3058 17.6774 36.4241 17.7301C36.5424 17.7828 36.6353 17.881 36.6823 18.0032C36.7292 18.1254 36.7265 18.2615 36.6745 18.3816C36.6226 18.5017 36.5259 18.5959 36.4055 18.6436L35.9517 18.8233C35.8953 18.8457 35.8353 18.8572 35.7747 18.8572Z" fill="#E78244"/>
<path d="M38.2734 11.7158H39.5063C39.9163 11.7158 40.3183 11.83 40.6671 12.0456C41.0159 12.2612 41.2977 12.5697 41.481 12.9365L41.9096 13.7936H40.6767C40.2667 13.7936 39.8649 13.6794 39.5161 13.4639C39.1674 13.2483 38.8855 12.9399 38.7022 12.5732L38.2734 11.7158Z" fill="#02A437"/>
<path d="M40.7831 16.7786C40.6454 16.7786 40.5132 16.7239 40.4158 16.6265C40.3184 16.5291 40.2637 16.3969 40.2637 16.2592C40.2655 15.4072 40.5616 14.582 41.1017 13.9232C41.6419 13.2643 42.393 12.8122 43.228 12.6433L43.2785 12.6331C43.4136 12.6061 43.5539 12.6339 43.6685 12.7103C43.7832 12.7868 43.8627 12.9056 43.8897 13.0407C43.9167 13.1758 43.889 13.3161 43.8125 13.4307C43.7361 13.5453 43.6173 13.6249 43.4822 13.6519L43.4317 13.662C42.8319 13.7833 42.2924 14.108 41.9045 14.5813C41.5165 15.0545 41.3039 15.6472 41.3026 16.2592C41.3026 16.3969 41.2478 16.5291 41.1504 16.6265C41.053 16.7239 40.9209 16.7786 40.7831 16.7786V16.7786Z" fill="#8F6934"/>
<path d="M38.923 15.2217C39.1756 15.2217 39.4242 15.284 39.6469 15.4032C39.8696 15.5224 40.0594 15.6947 40.1995 15.9048C40.2635 16.0009 40.3503 16.0796 40.4521 16.1341C40.5539 16.1886 40.6675 16.2171 40.783 16.2171C40.8984 16.2171 41.0121 16.1886 41.1138 16.1341C41.2156 16.0796 41.3024 16.0009 41.3664 15.9048C41.5065 15.6947 41.6963 15.5224 41.919 15.4032C42.1416 15.284 42.3903 15.2217 42.6428 15.2217C42.8729 15.2217 43.1 15.2734 43.3074 15.3731C43.5147 15.4727 43.697 15.6178 43.8407 15.7974L43.9627 15.9499C44.3998 16.4962 44.6563 17.1647 44.6969 17.8631C44.7375 18.5615 44.5602 19.2553 44.1894 19.8486L43.1758 21.4703C43.0794 21.6246 42.9453 21.7518 42.7862 21.84C42.6271 21.9282 42.4481 21.9745 42.2662 21.9745C41.9817 21.9745 41.7088 21.8615 41.5076 21.6603C41.4125 21.5651 41.2995 21.4896 41.1752 21.4381C41.0508 21.3866 40.9175 21.3601 40.783 21.3601C40.6484 21.3601 40.5151 21.3866 40.3908 21.4381C40.2664 21.4896 40.1534 21.5651 40.0583 21.6603C39.8571 21.8614 39.5842 21.9744 39.2997 21.9745C39.1178 21.9745 38.9388 21.9282 38.7797 21.84C38.6206 21.7518 38.4865 21.6246 38.3901 21.4703L37.3765 19.8486C37.0057 19.2553 36.8284 18.5615 36.869 17.8631C36.9096 17.1647 37.1661 16.4962 37.6032 15.9499L37.7251 15.7974C37.8688 15.6178 38.0511 15.4728 38.2585 15.3731C38.4658 15.2734 38.6929 15.2217 38.923 15.2217V15.2217Z" fill="#E82F3E"/>
<path d="M39.2874 19.5069C39.2192 19.507 39.1516 19.4936 39.0886 19.4675C39.0255 19.4414 38.9683 19.4031 38.9201 19.3548C38.6914 19.1266 38.5404 18.8321 38.4886 18.5132C38.4368 18.1944 38.4869 17.8673 38.6316 17.5784L38.8226 17.1966C38.8848 17.0745 38.9928 16.9819 39.123 16.9391C39.2532 16.8963 39.3951 16.9066 39.5177 16.9679C39.6402 17.0292 39.7336 17.1365 39.7775 17.2664C39.8213 17.3962 39.8121 17.5382 39.7517 17.6612L39.5608 18.0431C39.5138 18.1369 39.4976 18.2431 39.5144 18.3466C39.5312 18.4502 39.5802 18.5458 39.6544 18.6199C39.7271 18.6926 39.7767 18.7851 39.7968 18.8859C39.8169 18.9867 39.8066 19.0911 39.7673 19.1861C39.728 19.281 39.6615 19.3622 39.576 19.4193C39.4906 19.4764 39.3902 19.5069 39.2874 19.5069V19.5069Z" fill="#FF6268"/>
<path d="M48.8574 17.9482L49.3138 18.4046C49.6632 18.7539 49.9403 19.1686 50.1294 19.6251C50.3184 20.0815 50.4158 20.5708 50.4158 21.0648H51.9741V20.5454C51.9741 20.0513 51.8768 19.5621 51.6877 19.1056C51.4986 18.6492 51.2215 18.2345 50.8722 17.8851L50.4158 17.4287L48.8574 17.9482Z" fill="#7AA402"/>
<path d="M55.0913 17.9482L54.6349 18.4046C54.2855 18.7539 54.0084 19.1686 53.8193 19.6251C53.6303 20.0815 53.5329 20.5708 53.5329 21.0648H51.9746V20.5454C51.9746 20.0513 52.0719 19.5621 52.261 19.1056C52.4501 18.6492 52.7272 18.2345 53.0765 17.8851L53.5329 17.4287L55.0913 17.9482Z" fill="#7AA402"/>
<path d="M57.6893 13.9238C57.6896 13.638 57.6268 13.3556 57.5054 13.0967C57.384 12.8379 57.207 12.609 56.9871 12.4264C57.0526 12.151 57.0573 11.8645 57.0009 11.5871C56.9444 11.3096 56.828 11.0478 56.66 10.82C56.492 10.5921 56.2762 10.4036 56.0279 10.2676C55.7795 10.1317 55.5045 10.0515 55.2219 10.0327C54.8805 9.43923 54.3886 8.94622 53.7959 8.6034C53.2032 8.26058 52.5306 8.08008 51.8459 8.08008C51.1611 8.08008 50.4885 8.26058 49.8958 8.6034C49.3031 8.94622 48.8112 9.43923 48.4698 10.0327C48.1872 10.0515 47.9122 10.1316 47.6638 10.2675C47.4154 10.4035 47.1996 10.5919 47.0315 10.8198C46.8634 11.0477 46.7471 11.3095 46.6906 11.587C46.6341 11.8645 46.6388 12.1509 46.7043 12.4264C46.3091 12.755 46.0598 13.2265 46.0108 13.7381C45.9618 14.2497 46.1171 14.76 46.4428 15.1575C46.16 15.6819 46.0661 16.2877 46.1769 16.8731C46.2876 17.4585 46.5963 17.9881 47.0511 18.373C47.5059 18.7578 48.0792 18.9746 48.6749 18.987C49.2706 18.9994 49.8524 18.8066 50.3229 18.4409C50.8755 18.3687 51.4001 18.1547 51.8455 17.8197C52.291 18.1547 52.8156 18.3688 53.3682 18.441C53.8386 18.8067 54.4205 18.9996 55.0162 18.9872C55.6119 18.9749 56.1853 18.7581 56.6401 18.3731C57.095 17.9882 57.4036 17.4586 57.5143 16.8732C57.6251 16.2877 57.5311 15.682 57.2482 15.1575C57.5339 14.8099 57.6899 14.3738 57.6893 13.9238Z" fill="#7AA402"/>
<path d="M53.3142 11.7146C53.2068 11.7146 53.102 11.6813 53.0143 11.6192C52.9265 11.5572 52.8602 11.4694 52.8244 11.3681C52.7527 11.1656 52.62 10.9902 52.4445 10.8662C52.269 10.7422 52.0595 10.6756 51.8446 10.6756C51.6297 10.6756 51.4201 10.7422 51.2446 10.8662C51.0692 10.9902 50.9364 11.1656 50.8647 11.3681C50.8188 11.498 50.7232 11.6044 50.5988 11.6637C50.4745 11.7231 50.3317 11.7307 50.2018 11.6848C50.0719 11.6389 49.9656 11.5433 49.9062 11.4189C49.8468 11.2946 49.8392 11.1518 49.8852 11.0219C50.0285 10.6168 50.2939 10.2661 50.6448 10.018C50.9957 9.76992 51.4148 9.63672 51.8446 9.63672C52.2743 9.63672 52.6935 9.76992 53.0444 10.018C53.3953 10.2661 53.6607 10.6168 53.804 11.0219C53.8317 11.1003 53.8402 11.1841 53.8288 11.2665C53.8174 11.3488 53.7864 11.4272 53.7384 11.495C53.6904 11.5629 53.6269 11.6183 53.553 11.6565C53.4792 11.6947 53.3973 11.7146 53.3142 11.7146V11.7146Z" fill="black" fill-opacity="0.26"/>
<path d="M49.2458 15.351C48.8325 15.351 48.4362 15.1869 48.1439 14.8946C47.8517 14.6024 47.6875 14.206 47.6875 13.7927C47.6875 13.3794 47.8517 12.983 48.1439 12.6908C48.4362 12.3986 48.8325 12.2344 49.2458 12.2344C49.3836 12.2344 49.5157 12.2891 49.6131 12.3865C49.7106 12.4839 49.7653 12.6161 49.7653 12.7538C49.7653 12.8916 49.7106 13.0237 49.6131 13.1211C49.5157 13.2185 49.3836 13.2733 49.2458 13.2733C49.1081 13.2733 48.9759 13.328 48.8785 13.4254C48.7811 13.5228 48.7264 13.6549 48.7264 13.7927C48.7264 13.9305 48.7811 14.0626 48.8785 14.16C48.9759 14.2574 49.1081 14.3122 49.2458 14.3122C49.3836 14.3122 49.5157 14.3669 49.6131 14.4643C49.7106 14.5617 49.7653 14.6938 49.7653 14.8316C49.7653 14.9694 49.7106 15.1015 49.6131 15.1989C49.5157 15.2963 49.3836 15.351 49.2458 15.351Z" fill="black" fill-opacity="0.26"/>
<path d="M68.4762 8.55072C68.8325 8.18612 69.2882 7.93441 69.7866 7.82694C70.2849 7.71947 70.8039 7.76099 71.2788 7.94633C71.7538 8.13167 72.1637 8.45263 72.4575 8.86925C72.7513 9.28587 72.9161 9.77972 72.9313 10.2893C73.215 10.453 73.456 10.6815 73.6347 10.9561C73.8133 11.2307 73.9244 11.5437 73.9591 11.8694C73.9937 12.1952 73.9508 12.5245 73.8339 12.8305C73.717 13.1366 73.5294 13.4106 73.2864 13.6303C73.0434 13.85 72.7518 14.0091 72.4356 14.0947C72.1194 14.1802 71.7874 14.1898 71.4668 14.1226C71.1462 14.0555 70.846 13.9134 70.5907 13.7081C70.3354 13.5028 70.1323 13.24 69.998 12.9413C69.5803 12.8865 69.1822 12.7312 68.8378 12.4885C68.5366 12.6173 68.2092 12.673 67.8824 12.6512C67.5555 12.6293 67.2384 12.5305 66.957 12.3627C66.6756 12.195 66.4379 11.9631 66.2632 11.6859C66.0886 11.4088 65.9819 11.0943 65.9519 10.7681C65.922 10.4418 65.9696 10.1132 66.0908 9.80883C66.2121 9.50451 66.4036 9.23318 66.6497 9.01698C66.8959 8.80078 67.1896 8.64584 67.507 8.56481C67.8245 8.48378 68.1565 8.47895 68.4762 8.55072V8.55072Z" fill="#02A437"/>
<path d="M69.3897 13.3043C69.4943 13.3043 69.5965 13.2727 69.6828 13.2137C69.7692 13.1547 69.8358 13.071 69.8738 12.9736L70.818 10.554C70.8428 10.4904 70.8548 10.4226 70.8534 10.3544C70.852 10.2862 70.8372 10.219 70.8098 10.1565C70.7824 10.094 70.7429 10.0376 70.6937 9.99033C70.6445 9.9431 70.5864 9.90603 70.5229 9.88124C70.4593 9.85644 70.3915 9.8444 70.3233 9.84581C70.2551 9.84723 70.1879 9.86206 70.1254 9.88946C70.0629 9.91686 70.0064 9.9563 69.9592 10.0055C69.912 10.0548 69.8749 10.1128 69.8501 10.1763L68.9057 12.5959C68.875 12.6746 68.8639 12.7596 68.8735 12.8436C68.883 12.9276 68.9129 13.008 68.9606 13.0778C69.0083 13.1476 69.0723 13.2047 69.147 13.2441C69.2217 13.2836 69.305 13.3042 69.3895 13.3043H69.3897Z" fill="#027E2A"/>
<path d="M68.4194 12.9267C68.4354 12.9267 68.4514 12.926 68.4676 12.9245C68.5355 12.9183 68.6015 12.8987 68.6619 12.867C68.7223 12.8352 68.7758 12.7918 68.8194 12.7394C68.863 12.6869 68.8959 12.6264 68.9161 12.5612C68.9363 12.4961 68.9435 12.4276 68.9373 12.3596C68.8563 11.4974 68.4996 10.6841 67.9201 10.0405C67.8746 9.98926 67.8193 9.94754 67.7575 9.91775C67.6957 9.88797 67.6287 9.87072 67.5602 9.86698C67.4917 9.86325 67.4232 9.87311 67.3586 9.896C67.2939 9.91889 67.2344 9.95435 67.1836 10.0003C67.1327 10.0463 67.0914 10.1019 67.0622 10.164C67.0329 10.226 67.0162 10.2932 67.013 10.3617C67.0099 10.4302 67.0203 10.4986 67.0437 10.5631C67.0672 10.6276 67.1031 10.6867 67.1495 10.7372C67.5786 11.2139 67.8428 11.8161 67.9027 12.4546C67.9145 12.5836 67.974 12.7034 68.0696 12.7908C68.1652 12.8781 68.29 12.9266 68.4194 12.9267V12.9267Z" fill="#027E2A"/>
<path d="M70.357 13.6819C70.4857 13.6821 70.6099 13.6343 70.7052 13.5478C71.1818 13.1186 71.784 12.8545 72.4226 12.7946C72.4905 12.7884 72.5566 12.7688 72.6169 12.737C72.6773 12.7053 72.7308 12.6619 72.7744 12.6095C72.8181 12.557 72.8509 12.4965 72.8712 12.4313C72.8914 12.3662 72.8986 12.2977 72.8924 12.2298C72.8861 12.1618 72.8665 12.0958 72.8348 12.0354C72.803 11.975 72.7597 11.9215 72.7072 11.8779C72.6548 11.8343 72.5943 11.8014 72.5291 11.7812C72.464 11.7609 72.3955 11.7537 72.3275 11.76C71.4654 11.841 70.6523 12.1976 70.0087 12.7769C69.9307 12.8472 69.8759 12.9396 69.8515 13.0417C69.8271 13.1439 69.8342 13.251 69.8719 13.3491C69.9097 13.4471 69.9762 13.5314 70.0628 13.5908C70.1494 13.6502 70.252 13.682 70.357 13.6819V13.6819Z" fill="#027E2A"/>
<path d="M63.2996 22.6747L67.1708 24.1857L70.9019 16.7064C71.0785 16.3525 71.1793 15.9657 71.198 15.5707C71.2167 15.1757 71.1529 14.7811 71.0106 14.4121C70.8683 14.0431 70.6507 13.7078 70.3716 13.4276C70.0926 13.1474 69.7582 12.9284 69.3898 12.7846C69.0213 12.6408 68.627 12.5754 68.2319 12.5925C67.8367 12.6096 67.4495 12.7089 67.0949 12.884C66.7403 13.0591 66.426 13.3062 66.1722 13.6095C65.9184 13.9128 65.7306 14.2657 65.6208 14.6456L63.2996 22.6747Z" fill="#FD9226"/>
<path d="M69.6012 18.2722C69.711 18.2724 69.8173 18.2337 69.9019 18.1628C69.9864 18.0919 70.0438 17.9934 70.0641 17.8842C70.0845 17.775 70.0664 17.6621 70.0131 17.565C69.9598 17.4678 69.8746 17.3926 69.7723 17.3524L68.8958 17.0062C68.7795 16.9603 68.65 16.963 68.5357 17.0137C68.4214 17.0645 68.3318 17.159 68.2864 17.2767C68.241 17.3943 68.2437 17.5254 68.2938 17.641C68.3439 17.7567 68.4374 17.8475 68.5537 17.8934L69.4299 18.2396C69.4845 18.2612 69.5426 18.2722 69.6012 18.2722V18.2722Z" fill="#E78244"/>
<path d="M66.9223 17.2342C67.036 17.2343 67.1461 17.1956 67.2337 17.1247C67.3212 17.0538 67.3807 16.9553 67.4017 16.8461C67.4228 16.737 67.4041 16.6241 67.3489 16.5269C67.2938 16.4298 67.2056 16.3546 67.0996 16.3143L66.1916 15.9681C66.0712 15.9222 65.9371 15.9249 65.8187 15.9757C65.7004 16.0264 65.6075 16.121 65.5605 16.2386C65.5135 16.3563 65.5163 16.4874 65.5682 16.603C65.6201 16.7187 65.7169 16.8094 65.8374 16.8553L66.745 17.2015C66.8015 17.2231 66.8616 17.2342 66.9223 17.2342V17.2342Z" fill="#E78244"/>
<path d="M68.8149 20.0252C68.9258 20.0253 69.0333 19.9866 69.1188 19.9157C69.2043 19.8449 69.2623 19.7463 69.2828 19.6372C69.3033 19.528 69.2851 19.4151 69.2312 19.3179C69.1774 19.2208 69.0913 19.1456 68.9878 19.1053L67.7318 18.6293C67.6737 18.6065 67.6116 18.5955 67.5491 18.5968C67.4867 18.5981 67.4251 18.6117 67.3679 18.6368C67.3107 18.6619 67.259 18.698 67.2158 18.7432C67.1726 18.7883 67.1386 18.8415 67.1159 18.8997C67.0932 18.958 67.0822 19.0201 67.0835 19.0827C67.0848 19.1452 67.0983 19.2068 67.1234 19.2641C67.1485 19.3213 67.1846 19.3731 67.2297 19.4164C67.2747 19.4597 67.3279 19.4937 67.3861 19.5164L68.6421 19.9925C68.6972 20.014 68.7558 20.0251 68.8149 20.0252V20.0252Z" fill="#E78244"/>
<path d="M65.7546 18.8563C65.8682 18.8564 65.9783 18.8161 66.0658 18.7426C66.1533 18.669 66.2127 18.5667 66.2338 18.4533C66.2548 18.34 66.2361 18.2227 66.181 18.1219C66.1258 18.021 66.0377 17.9429 65.9318 17.9011L65.478 17.7213C65.3576 17.6737 65.2235 17.6765 65.1052 17.7292C64.9868 17.7818 64.894 17.8801 64.847 18.0022C64.8001 18.1244 64.8028 18.2605 64.8548 18.3806C64.9067 18.5007 65.0034 18.5949 65.1238 18.6426L65.5776 18.8223C65.634 18.8447 65.694 18.8562 65.7546 18.8563Z" fill="#E78244"/>
<path d="M63.2559 11.7158H62.023C61.613 11.7158 61.211 11.83 60.8622 12.0456C60.5134 12.2612 60.2316 12.5697 60.0483 12.9365L59.6197 13.7936H60.8526C61.2626 13.7936 61.6644 13.6794 62.0132 13.4639C62.3619 13.2483 62.6438 12.9399 62.8271 12.5732L63.2559 11.7158Z" fill="#02A437"/>
<path d="M60.7481 16.7796C60.8859 16.7796 61.018 16.7249 61.1154 16.6275C61.2129 16.53 61.2676 16.3979 61.2676 16.2602C61.2657 15.4082 60.9697 14.583 60.4295 13.9241C59.8894 13.2653 59.1383 12.8132 58.3032 12.6442L58.2527 12.6341C58.1176 12.6071 57.9773 12.6349 57.8627 12.7113C57.7481 12.7877 57.6685 12.9066 57.6415 13.0417C57.6145 13.1768 57.6423 13.3171 57.7187 13.4317C57.7952 13.5463 57.914 13.6259 58.0491 13.6529L58.0995 13.6629C58.6993 13.7843 59.2388 14.109 59.6268 14.5822C60.0148 15.0555 60.2274 15.6482 60.2287 16.2602C60.2287 16.3979 60.2834 16.53 60.3808 16.6275C60.4782 16.7249 60.6104 16.7796 60.7481 16.7796V16.7796Z" fill="#8F6934"/>
<path d="M62.6082 15.2217C62.3557 15.2217 62.107 15.284 61.8843 15.4032C61.6617 15.5224 61.4719 15.6947 61.3318 15.9048C61.2677 16.0009 61.181 16.0796 61.0792 16.1341C60.9774 16.1886 60.8637 16.2171 60.7483 16.2171C60.6329 16.2171 60.5192 16.1886 60.4174 16.1341C60.3156 16.0796 60.2289 16.0009 60.1648 15.9048C60.0247 15.6947 59.8349 15.5224 59.6123 15.4032C59.3896 15.284 59.141 15.2217 58.8884 15.2217C58.6584 15.2217 58.4312 15.2734 58.2239 15.3731C58.0165 15.4727 57.8342 15.6178 57.6905 15.7974L57.5685 15.9499C57.1315 16.4962 56.8749 17.1647 56.8343 17.8631C56.7937 18.5615 56.9711 19.2553 57.3418 19.8486L58.3554 21.4703C58.4518 21.6246 58.5859 21.7518 58.7451 21.84C58.9042 21.9282 59.0831 21.9745 59.2651 21.9745C59.5496 21.9745 59.8224 21.8615 60.0236 21.6603C60.1188 21.5651 60.2318 21.4896 60.3561 21.4381C60.4804 21.3866 60.6137 21.3601 60.7483 21.3601C60.8829 21.3601 61.0162 21.3866 61.1405 21.4381C61.2648 21.4896 61.3778 21.5651 61.473 21.6603C61.6742 21.8614 61.947 21.9744 62.2315 21.9745C62.4135 21.9745 62.5924 21.9282 62.7516 21.84C62.9107 21.7518 63.0448 21.6246 63.1412 21.4703L64.1548 19.8486C64.5255 19.2553 64.7029 18.5615 64.6623 17.8631C64.6217 17.1647 64.3651 16.4962 63.9281 15.9499L63.8061 15.7974C63.6624 15.6178 63.4801 15.4728 63.2728 15.3731C63.0654 15.2734 62.8383 15.2217 62.6082 15.2217V15.2217Z" fill="#E82F3E"/>
<path d="M62.2439 19.5079C62.3121 19.5079 62.3797 19.4945 62.4427 19.4684C62.5057 19.4423 62.563 19.404 62.6112 19.3557C62.8399 19.1276 62.9908 18.8331 63.0426 18.5142C63.0944 18.1953 63.0444 17.8682 62.8997 17.5794L62.7087 17.1976C62.6464 17.0755 62.5384 16.9829 62.4082 16.9401C62.278 16.8972 62.1362 16.9076 62.0136 16.9689C61.891 17.0302 61.7976 17.1375 61.7538 17.2674C61.7099 17.3972 61.7192 17.5391 61.7795 17.6622L61.9704 18.0441C62.0174 18.1379 62.0337 18.2441 62.0169 18.3476C62.0001 18.4512 61.9511 18.5468 61.8768 18.6209C61.8041 18.6935 61.7546 18.7861 61.7345 18.8869C61.7144 18.9876 61.7246 19.0921 61.7639 19.187C61.8032 19.282 61.8698 19.3632 61.9552 19.4203C62.0407 19.4774 62.1411 19.5079 62.2439 19.5079V19.5079Z" fill="#FF6268"/>
</g>
<path fill-rule="evenodd" clip-rule="evenodd" d="M68.6913 54.7714H29.7498C28.5626 54.7714 27.5944 55.7374 27.5944 56.9268C27.5944 58.1162 28.5626 59.0822 29.7498 59.0822H68.6913C69.8829 59.0822 70.8467 60.0465 70.8467 61.2376C70.8467 62.4292 69.8829 63.393 68.6913 63.393H29.7498C26.1844 63.393 23.2836 60.4922 23.2836 56.9268C23.2836 54.2741 24.8917 51.9946 27.1818 50.9989L26.2878 46.6564H15.9741C15.0044 46.6564 14.2183 45.8702 14.2183 44.9005C14.2183 43.9308 15.0044 43.1447 15.9741 43.1447H25.6469C26.172 43.1125 26.588 42.6764 26.588 42.1432C26.588 41.5891 26.1387 41.1399 25.5846 41.1399H25.1519L25.1516 41.1382H13.2951C12.3253 41.1382 11.5392 40.352 11.5392 39.3823C11.5392 38.4126 12.3253 37.6265 13.2951 37.6265H25.6211C26.1583 37.6073 26.588 37.1657 26.588 36.6238C26.588 36.0696 26.1387 35.6204 25.5846 35.6204H24.0155L24.0154 35.62H16.5494C15.5797 35.62 14.7936 34.8338 14.7936 33.8641C14.7936 32.8944 15.5797 32.1082 16.5494 32.1082H25.6211C26.1584 32.089 26.588 31.6475 26.588 31.1056C26.588 30.5514 26.1387 30.1022 25.5846 30.1022H22.8794L22.8792 30.1014H1.75585C0.786122 30.1014 0 29.3153 0 28.3456C0 27.3758 0.786122 26.5897 1.75585 26.5897H22.1562L20.8171 20.0859H24.7739L77.3129 20.2844C77.9909 20.2844 78.6263 20.6027 79.0349 21.1415C79.443 21.6821 79.5699 22.3809 79.3846 23.0314L70.7625 53.2076C70.5015 54.1338 69.6556 54.7714 68.6913 54.7714ZM9.73299 32.1267C8.76326 32.1267 7.97713 32.9128 7.97713 33.8825C7.97713 34.8523 8.76325 35.6384 9.73298 35.6384H11.7397C12.7094 35.6384 13.4955 34.8523 13.4955 33.8825C13.4955 32.9128 12.7094 32.1267 11.7397 32.1267H9.73299ZM6.77127 37.6449C5.80154 37.6449 5.01541 38.431 5.01541 39.4007C5.01541 40.3705 5.80153 41.1566 6.77127 41.1566H7.77461C8.74434 41.1566 9.53046 40.3705 9.53046 39.4007C9.53046 38.431 8.74434 37.6449 7.77461 37.6449H6.77127Z" fill="#2B9348"/>
<path d="M27.5918 70.9857C27.5918 74.444 30.4049 77.2566 33.863 77.2566C37.3205 77.2566 40.1336 74.444 40.1336 70.9857C40.1336 67.528 37.3205 64.7148 33.863 64.7148C30.4049 64.7148 27.5918 67.528 27.5918 70.9857Z" fill="#2B9348"/>
<path d="M57.6934 70.9857C57.6934 74.444 60.5066 77.2566 63.9643 77.2566C67.4225 77.2566 70.2352 74.444 70.2352 70.9857C70.2352 67.528 67.4225 64.7148 63.9643 64.7148C60.5066 64.7148 57.6934 67.528 57.6934 70.9857Z" fill="#2B9348"/>
<path d="M62.207 70.9873C62.207 71.9556 62.9947 72.7432 63.9629 72.7432C64.9312 72.7432 65.7187 71.9556 65.7187 70.9873C65.7187 70.0191 64.9312 69.2314 63.9629 69.2314C62.9947 69.2314 62.207 70.0191 62.207 70.9873Z" fill="white"/>
<path d="M32.1055 70.9873C32.1055 71.9556 32.8932 72.7432 33.8613 72.7432C34.8296 72.7432 35.6172 71.9556 35.6172 70.9873C35.6172 70.0191 34.8296 69.2314 33.8613 69.2314C32.8932 69.2314 32.1055 70.0191 32.1055 70.9873Z" fill="white"/>
<path d="M43.912 35.0164C43.5808 34.7221 43.167 34.5013 42.6703 34.3542C42.1737 34.1886 41.6862 34.1058 41.2079 34.1058C40.6745 34.1058 40.187 34.207 39.7456 34.4094C39.3041 34.5933 38.9178 34.86 38.5867 35.2095C38.274 35.5406 38.0257 35.9453 37.8417 36.4236C37.6578 36.9018 37.5658 37.4169 37.5658 37.9687C37.5658 38.5206 37.667 39.0356 37.8693 39.5139C38.0717 39.9921 38.3476 40.406 38.6971 40.7555C39.0466 41.0866 39.4513 41.3533 39.9111 41.5557C40.3894 41.7396 40.8952 41.8316 41.4287 41.8316C42.0541 41.8316 42.6243 41.7028 43.1394 41.4453C43.6544 41.1694 44.0959 40.8015 44.4638 40.3416H42.8083V36.4787H49.8994V42.6042C49.4763 43.3583 48.9705 44.0481 48.3819 44.6736C47.7932 45.2806 47.131 45.8048 46.3952 46.2463C45.6778 46.6878 44.8961 47.0281 44.0499 47.2672C43.2038 47.5063 42.33 47.6259 41.4287 47.6259C40.1043 47.6259 38.8534 47.3776 37.6762 46.8809C36.4989 46.3843 35.4688 45.7037 34.5859 44.8391C33.7213 43.9746 33.0315 42.9537 32.5165 41.7764C32.0198 40.5991 31.7715 39.3299 31.7715 37.9687C31.7715 36.6443 32.0106 35.3935 32.4889 34.2162C32.9671 33.0389 33.6201 32.018 34.4479 31.1535C35.2941 30.2706 36.2874 29.5808 37.4278 29.0841C38.5867 28.569 39.8283 28.3115 41.1528 28.3115C42.1829 28.3115 43.075 28.4127 43.8292 28.615C44.5834 28.8174 45.218 29.0473 45.733 29.3048C46.34 29.5991 46.8459 29.9211 47.2506 30.2706L43.912 35.0164ZM44.1879 31.457C43.9487 31.3466 43.682 31.2547 43.3877 31.1811C43.1302 31.1075 42.8267 31.0431 42.4772 30.9879C42.1277 30.9328 41.7414 30.9052 41.3183 30.9052C40.3434 30.9052 39.4329 31.0799 38.5867 31.4294C37.7405 31.7789 37.0048 32.2664 36.3793 32.8918C35.7539 33.4988 35.2573 34.2346 34.8894 35.0991C34.5399 35.9637 34.3651 36.9202 34.3651 37.9687C34.3651 39.0172 34.5491 39.9737 34.917 40.8383C35.2849 41.7028 35.7907 42.4478 36.4345 43.0732C37.0783 43.6803 37.8233 44.1585 38.6695 44.508C39.534 44.8575 40.4538 45.0323 41.4287 45.0323C42.6979 45.0323 43.8476 44.7379 44.8777 44.1493C45.9078 43.5423 46.7447 42.7421 47.3885 41.7488V38.1343H44.4638V38.7965H46.6711V41.5557C46.1009 42.4018 45.3559 43.0732 44.4362 43.5699C43.5349 44.0665 42.5324 44.3149 41.4287 44.3149C40.5457 44.3149 39.718 44.1677 38.9454 43.8734C38.1912 43.5607 37.5198 43.1284 36.9312 42.5766C36.3609 42.0063 35.9103 41.3349 35.5792 40.5624C35.2481 39.7714 35.0825 38.9068 35.0825 37.9687C35.0825 37.0306 35.2389 36.1752 35.5516 35.4027C35.8827 34.6117 36.3242 33.9403 36.876 33.3884C37.4462 32.8182 38.1084 32.3859 38.8626 32.0916C39.6168 31.7789 40.4354 31.6226 41.3183 31.6226C41.6494 31.6226 41.9621 31.6502 42.2564 31.7053C42.5507 31.7605 42.8083 31.8157 43.029 31.8709C43.2865 31.9445 43.5257 32.018 43.7464 32.0916L44.1879 31.457Z" fill="white"/>
<path d="M53.0798 28.753H58.9569V35.0164H62.2404V28.753H68.145V47.1568H62.2404V40.3416H58.9569V47.1568H53.0798V28.753ZM56.5564 44.9495V37.9687H64.6684V44.9495H65.3858V30.9604H64.6684V37.3065H56.5564V30.9604H55.839V44.9495H56.5564Z" fill="white"/>
<path d="M135.92 39.9H134.39V48H132.71L132.44 45.3C131.86 46.16 131.03 46.88 129.95 47.46C128.89 48.02 127.64 48.3 126.2 48.3C123.52 48.3 121.35 47.34 119.69 45.42C118.03 43.5 117.2 41.14 117.2 38.34C117.2 36.46 117.6 34.76 118.4 33.24C119.22 31.7 120.34 30.48 121.76 29.58C123.2 28.66 124.85 28.2 126.71 28.2C128.27 28.2 129.63 28.42 130.79 28.86C131.97 29.28 132.93 29.82 133.67 30.48L134.21 34.14L132.35 34.35L131.75 31.59C131.21 31.23 130.55 30.91 129.77 30.63C129.01 30.33 128.03 30.18 126.83 30.18C124.65 30.18 122.89 30.93 121.55 32.43C120.21 33.93 119.54 35.87 119.54 38.25C119.54 40.67 120.18 42.62 121.46 44.1C122.74 45.58 124.45 46.32 126.59 46.32C128.37 46.32 129.75 45.84 130.73 44.88C131.71 43.9 132.2 42.82 132.2 41.64V39.9H127.55V37.95H135.92V39.9ZM145.262 34.41C146.222 34.41 146.982 34.64 147.542 35.1L148.052 38.46L146.342 38.67L145.832 36.39C145.492 36.27 145.152 36.21 144.812 36.21C144.032 36.21 143.382 36.54 142.862 37.2C142.342 37.84 142.082 38.68 142.082 39.72V46.29H145.172V48H137.642V46.29H139.982V36.36H137.582V34.65H141.962V37.05C142.222 36.31 142.642 35.69 143.222 35.19C143.822 34.67 144.502 34.41 145.262 34.41ZM152.49 31.2V28.47H154.77V31.2H152.49ZM157.14 48H150.36V46.29H152.7V36.36H150.3V34.65H154.8V46.29H157.14V48ZM174.668 48H167.918V46.29H170.228V40.08C170.228 38.64 169.938 37.63 169.358 37.05C168.778 36.45 168.038 36.15 167.138 36.15C165.938 36.15 164.968 36.55 164.228 37.35C163.508 38.13 163.128 39.03 163.088 40.05V46.29H165.428V48H158.648V46.29H160.988V36.36H158.588V34.65H163.088V37.02C164.048 35.26 165.608 34.38 167.768 34.38C169.068 34.38 170.158 34.78 171.038 35.58C171.918 36.38 172.358 37.67 172.358 39.45V46.29H174.668V48ZM191.475 48H184.695V46.29H187.035V40.08C187.035 38.64 186.735 37.63 186.135 37.05C185.555 36.45 184.805 36.15 183.885 36.15C182.725 36.15 181.775 36.55 181.035 37.35C180.315 38.13 179.935 39.01 179.895 39.99V46.29H182.205V48H175.455V46.29H177.765V29.07H175.455V27.36H179.895V37.05C180.875 35.27 182.435 34.38 184.575 34.38C185.875 34.38 186.965 34.78 187.845 35.58C188.725 36.38 189.165 37.67 189.165 39.45V46.29H191.475V48ZM204.782 44.16C204.602 45.3 204.032 46.28 203.072 47.1C202.112 47.9 200.812 48.3 199.172 48.3C197.292 48.3 195.772 47.71 194.612 46.53C193.452 45.35 192.872 43.68 192.872 41.52C192.872 39.44 193.422 37.73 194.522 36.39C195.622 35.05 197.112 34.38 198.992 34.38C200.832 34.38 202.232 34.96 203.192 36.12C204.152 37.28 204.642 38.65 204.662 40.23C204.662 40.75 204.602 41.28 204.482 41.82H195.092C195.212 44.94 196.622 46.5 199.322 46.5C200.382 46.5 201.212 46.25 201.812 45.75C202.412 45.25 202.812 44.59 203.012 43.77L204.782 44.16ZM202.442 40.26C202.542 39.26 202.302 38.32 201.722 37.44C201.162 36.56 200.232 36.12 198.932 36.12C197.692 36.12 196.782 36.53 196.202 37.35C195.622 38.17 195.262 39.14 195.122 40.26H202.442ZM213.204 48H206.424V46.29H208.764V29.07H206.394V27.36H210.864V46.29H213.204V48ZM224.773 44.4C224.413 47 223.003 48.3 220.543 48.3C219.203 48.3 218.173 47.92 217.453 47.16C216.753 46.4 216.403 45.37 216.403 44.07V36.33H214.243V34.65H216.403V30.36H218.503V34.65H223.723V36.33H218.503V43.8C218.503 44.6 218.673 45.25 219.013 45.75C219.373 46.23 219.953 46.47 220.753 46.47C221.273 46.47 221.753 46.31 222.193 45.99C222.653 45.67 222.983 44.97 223.183 43.89L224.773 44.4ZM241.456 48H234.676V46.29H237.016V40.08C237.016 38.64 236.716 37.63 236.116 37.05C235.536 36.45 234.786 36.15 233.866 36.15C232.706 36.15 231.756 36.55 231.016 37.35C230.296 38.13 229.916 39.01 229.876 39.99V46.29H232.186V48H225.436V46.29H227.746V29.07H225.436V27.36H229.876V37.05C230.856 35.27 232.416 34.38 234.556 34.38C235.856 34.38 236.946 34.78 237.826 35.58C238.706 36.38 239.146 37.67 239.146 39.45V46.29H241.456V48Z" fill="white"/>
</svg>
